<?xml version="1.0" encoding="UTF-8"?>
<svg width="200px" height="19px" viewBox="0 0 200 19" version="1.1" xmlns="http://www.w3.org/2000/svg" xmlns:xlink="http://www.w3.org/1999/xlink">
    <!-- Generator: Sketch 56 (81588) - https://sketch.com -->
    <title>Combined Shape</title>
    <desc>Created with Sketch.</desc>
    <g id="Safe-security-UX" stroke="none" stroke-width="1" fill="none" fill-rule="evenodd">
        <g id="Home-page-Copy-21" transform="translate(-584.000000, -7573.000000)" fill="#FEFEFE">
            <path d="M599.084976,7586.20956 C599.084976,7587.74272 598.563178,7589.01885 597.521129,7590.03493 C596.176824,7591.34422 594.197858,7592 591.582686,7592 C589.248897,7592 587.37661,7591.3706 585.961959,7590.11257 C584.653986,7588.95779 584,7587.53619 584,7585.84775 L587.500296,7585.84775 C587.500296,7586.7093 587.827289,7587.45855 588.480502,7588.09624 C589.152268,7588.75126 590.204367,7589.0784 591.635252,7589.0784 C593.155036,7589.0784 594.241921,7588.75126 594.895907,7588.09624 C595.390649,7587.57915 595.638019,7586.99347 595.638019,7586.33845 C595.638019,7585.14976 594.895907,7584.42539 593.411683,7584.16684 C592.969508,7584.08091 592.262955,7583.99499 591.290479,7583.9083 C590.318776,7583.82237 589.637733,7583.74473 589.248897,7583.67614 C587.853572,7583.45227 586.708709,7582.90504 585.816629,7582.03444 C584.924548,7581.16459 584.477735,7580.00605 584.477735,7578.55806 C584.477735,7577.21334 585.025815,7576.00806 586.121204,7574.93922 C586.758184,7574.3362 587.562138,7573.86208 588.533841,7573.51761 C589.505545,7573.17239 590.53909,7573.00053 591.635252,7573.00053 C593.826029,7573.00053 595.576177,7573.59525 596.884149,7574.78394 C598.138783,7575.93871 598.775762,7577.23972 598.792769,7578.68771 L595.294019,7578.68771 C595.25846,7578.01535 594.984033,7577.41233 594.471512,7576.87791 C594.171575,7576.58469 593.751818,7576.34801 593.21224,7576.16711 C592.673436,7575.9862 592.13927,7575.895 591.608969,7575.895 C590.247657,7575.895 589.231891,7576.23193 588.560125,7576.90354 C588.136502,7577.35203 587.923918,7577.86911 587.923918,7578.45479 C587.923918,7579.57489 588.560125,7580.23821 589.832538,7580.44549 C590.274713,7580.51333 590.989769,7580.60002 591.980025,7580.70328 C592.969508,7580.80655 593.614991,7580.87589 593.915701,7580.91057 C595.416932,7581.1171 596.653785,7581.67715 597.626261,7582.58996 C598.597965,7583.50353 599.084976,7584.71031 599.084976,7586.20956 Z M611.356109,7585.14953 L608.678321,7577.4204 L606.000533,7585.14953 L611.356109,7585.14953 Z M617.214157,7591.66359 L613.635785,7591.66359 L612.415938,7588.14802 L604.939931,7588.14802 L603.720858,7591.66359 L600.274674,7591.66359 L606.875607,7573.33648 L610.613224,7573.33648 L617.214157,7591.66359 Z M632.759474,7576.36052 L623.18932,7576.36052 L623.18932,7581.27207 L631.725156,7581.27207 L631.725156,7584.29619 L623.18932,7584.29619 L623.18932,7591.66352 L619.76942,7591.66352 L619.76942,7573.33641 L632.759474,7573.33641 L632.759474,7576.36052 Z M648.88217,7591.66329 L635.495549,7591.66329 L635.495549,7573.33693 L648.88217,7573.33693 L648.88217,7576.3603 L638.914676,7576.3603 L638.914676,7580.62512 L647.68938,7580.62512 L647.68938,7583.62436 L638.914676,7583.62436 L638.914676,7588.63842 L648.88217,7588.63842 L648.88217,7591.66329 Z M672.422741,7586.20956 C672.422741,7587.74272 671.900943,7589.01885 670.858894,7590.03493 C669.514589,7591.34422 667.535623,7592 664.920451,7592 C662.586663,7592 660.714376,7591.3706 659.299724,7590.11257 C657.991752,7588.95779 657.337765,7587.53619 657.337765,7585.84775 L660.838061,7585.84775 C660.838061,7586.7093 661.165054,7587.45855 661.818268,7588.09624 C662.490034,7588.75126 663.542132,7589.0784 664.973017,7589.0784 C666.492801,7589.0784 667.579686,7588.75126 668.233673,7588.09624 C668.728414,7587.57915 668.975785,7586.99347 668.975785,7586.33845 C668.975785,7585.14976 668.233673,7584.42539 666.749448,7584.16684 C666.307273,7584.08091 665.60072,7583.99499 664.628244,7583.9083 C663.656541,7583.82237 662.975499,7583.74473 662.586663,7583.67614 C661.191337,7583.45227 660.046475,7582.90504 659.154394,7582.03444 C658.262313,7581.16459 657.8155,7580.00605 657.8155,7578.55806 C657.8155,7577.21334 658.363581,7576.00806 659.458969,7574.93922 C660.095949,7574.3362 660.899904,7573.86208 661.871607,7573.51761 C662.84331,7573.17239 663.876856,7573.00053 664.973017,7573.00053 C667.163794,7573.00053 668.913942,7573.59525 670.221915,7574.78394 C671.476548,7575.93871 672.113528,7577.23972 672.130534,7578.68771 L668.631785,7578.68771 C668.596225,7578.01535 668.321798,7577.41233 667.809277,7576.87791 C667.50934,7576.58469 667.089583,7576.34801 666.550006,7576.16711 C666.011201,7575.9862 665.477035,7575.895 664.946734,7575.895 C663.585422,7575.895 662.569656,7576.23193 661.89789,7576.90354 C661.474268,7577.35203 661.261683,7577.86911 661.261683,7578.45479 C661.261683,7579.57489 661.89789,7580.23821 663.170303,7580.44549 C663.612478,7580.51333 664.327534,7580.60002 665.31779,7580.70328 C666.307273,7580.80655 666.952756,7580.87589 667.253466,7580.91057 C668.754697,7581.1171 669.991551,7581.67715 670.964027,7582.58996 C671.93573,7583.50353 672.422741,7584.71031 672.422741,7586.20956 Z M689.067853,7591.66329 L675.681232,7591.66329 L675.681232,7573.33693 L689.067853,7573.33693 L689.067853,7576.3603 L679.100359,7576.3603 L679.100359,7580.62512 L687.875062,7580.62512 L687.875062,7583.62436 L679.100359,7583.62436 L679.100359,7588.63842 L689.067853,7588.63842 L689.067853,7591.66329 Z M706.065546,7585.82159 C705.888521,7587.47536 705.287101,7588.81179 704.262831,7589.82787 C702.813394,7591.2751 701.019956,7591.99947 698.880972,7591.99947 C696.724982,7591.99947 694.948551,7591.31882 693.552452,7589.95676 C692.616309,7589.04395 691.992471,7588.00526 691.68403,7586.84219 C691.374044,7585.67988 691.22021,7584.23566 691.22021,7582.51255 C691.22021,7580.78944 691.374044,7579.34597 691.68403,7578.18291 C691.992471,7577.01984 692.616309,7575.98191 693.552452,7575.06759 C694.967104,7573.6897 696.741988,7573 698.880972,7573 C701.055515,7573 702.848953,7573.70703 704.262831,7575.12035 C705.287101,7576.13643 705.888521,7577.46381 706.065546,7579.101 L702.566023,7579.101 C702.494904,7578.39396 702.212747,7577.74798 701.718005,7577.16231 C701.098805,7576.40402 700.154158,7576.02487 698.880972,7576.02487 C697.732244,7576.02487 696.769045,7576.42964 695.992146,7577.23919 C695.584757,7577.65301 695.280182,7578.20552 695.076874,7578.89446 C694.873567,7579.58341 694.759158,7580.16004 694.732874,7580.62512 C694.705818,7581.0917 694.692677,7581.72034 694.692677,7582.51255 C694.692677,7583.30551 694.705818,7583.93416 694.732874,7584.39923 C694.759158,7584.86431 694.873567,7585.44245 695.076874,7586.13139 C695.280182,7586.82109 695.584757,7587.37285 695.992146,7587.78591 C696.769045,7588.59621 697.732244,7589.00098 698.880972,7589.00098 C700.135606,7589.00098 701.081799,7588.61279 701.718005,7587.83792 C702.212747,7587.25149 702.494904,7586.57988 702.566023,7585.82159 L706.065546,7585.82159 Z M723.511675,7584.63207 C723.511675,7586.87302 722.875468,7588.66096 721.602282,7589.99588 C720.330642,7591.33231 718.509375,7591.9994 716.142346,7591.9994 C713.772999,7591.9994 711.953278,7591.33231 710.680865,7589.99588 C709.408452,7588.66096 708.772245,7586.87302 708.772245,7584.63207 L708.772245,7573.33686 L712.191372,7573.33686 L712.191372,7584.58081 C712.191372,7585.94212 712.518365,7587.01473 713.173125,7587.79865 C713.826338,7588.58332 714.816594,7588.97528 716.142346,7588.97528 C717.467326,7588.97528 718.456809,7588.58332 719.111568,7587.79865 C719.764008,7587.01473 720.091775,7585.94212 720.091775,7584.58081 L720.091775,7573.33686 L723.511675,7573.33686 L723.511675,7584.63207 Z M738.566193,7579.02298 C738.566193,7578.24811 738.283263,7577.59308 737.717402,7577.05866 C737.152315,7576.525 736.400926,7576.25741 735.464009,7576.25741 L730.957997,7576.25741 L730.957997,7581.7373 L735.518122,7581.7373 C736.489052,7581.7373 737.24044,7581.50062 737.770741,7581.0265 C738.301042,7580.55238 738.566193,7579.88529 738.566193,7579.02298 Z M741.986093,7591.66367 L738.274759,7591.66367 L735.146293,7584.73579 L730.98428,7584.73579 L730.98428,7591.66367 L727.538097,7591.66367 L727.538097,7573.33656 L735.464009,7573.33656 C737.585213,7573.33656 739.202399,7573.88379 740.316341,7574.97826 C741.428736,7576.07273 741.986093,7577.42047 741.986093,7579.02298 C741.986093,7580.22976 741.672242,7581.29408 741.044538,7582.21519 C740.417608,7583.1378 739.581959,7583.7883 738.53991,7584.16669 L741.986093,7591.66367 Z M745.238786,7591.66352 L745.238786,7573.33716 L748.711253,7573.33716 L748.711253,7591.66352 L745.238786,7591.66352 Z M765.897102,7576.43854 L760.330487,7576.43854 L760.330487,7591.66314 L756.910587,7591.66314 L756.910587,7576.43854 L751.343973,7576.43854 L751.343973,7573.33678 L765.897102,7573.33678 L765.897102,7576.43854 Z M784,7573.33656 L777.426123,7584.63177 L777.426123,7591.66292 L773.97994,7591.66292 L773.97994,7584.63177 L767.458629,7573.33656 L771.16919,7573.33656 L775.808937,7581.24584 L780.447911,7573.33656 L784,7573.33656 Z" id="Combined-Shape"></path>
        </g>
    </g>
</svg>