<?xml version="1.0" encoding="utf-8"?>
<!-- Generator: Adobe Illustrator 24.0.3, SVG Export Plug-In . SVG Version: 6.00 Build 0)  -->
<svg version="1.1" xmlns="http://www.w3.org/2000/svg" xmlns:xlink="http://www.w3.org/1999/xlink" x="0px" y="0px"
	 viewBox="0 0 1080 962.7" style="enable-background:new 0 0 1080 962.7;" xml:space="preserve">
<style type="text/css">
	.st0{fill:#FFFFFF;}
</style>
<g id="Frame">
</g>
<g id="inner-eye">
</g>
<g id="outer-eye">
</g>
<g id="outer-bottom-eye">
	<path class="st0" d="M998.1,481.4C997.9,481,807.7,180.6,540,180.6C272.3,180.6,82.1,481,81.9,481.4c0,0,0,0,0,0
		S272.1,782.2,540,782.2C807.9,782.2,998.1,481.4,998.1,481.4C998.1,481.4,998.1,481.4,998.1,481.4z M540,708.2
		c-125.3,0-226.8-101.5-226.8-226.8c0,0,0,0,0,0c0-125.3,101.5-226.8,226.8-226.8c125.3,0,226.8,101.5,226.8,226.8c0,0,0,0,0,0
		C766.8,606.6,665.3,708.2,540,708.2z"/>
</g>
</svg>
